<mxfile host="app.diagrams.net" modified="2023-10-26T06:59:11.250Z" agent="Mozilla/5.0 (Macintosh; Intel Mac OS X 10_15_7) AppleWebKit/537.36 (KHTML, like Gecko) Chrome/118.0.0.0 Safari/537.36" version="22.0.6" etag="lMT689n8M138nwbexkHf" type="github">
  <diagram name="Page-1" id="bHid4ojDo90aXjrBbkGf">
    <mxGraphModel>
      <root>
        <mxCell id="0" />
        <mxCell id="1" parent="0" />
      </root>
    </mxGraphModel>
  </diagram>
</mxfile>
